<svg width="2681" height="2255" xmlns="http://www.w3.org/2000/svg" xmlns:xlink="http://www.w3.org/1999/xlink" overflow="hidden"><defs><clipPath id="clip0"><rect x="154" y="133" width="2681" height="2255"/></clipPath></defs><g clip-path="url(#clip0)" transform="translate(-154 -133)"><path d="M0 0 0.000360892 64.9689" stroke="#000000" stroke-width="4.58333" stroke-linejoin="round" stroke-miterlimit="10" fill="none" fill-rule="evenodd" transform="matrix(1 0 0 -1 2690.5 585.469)"/><path d="M0 0 64.9689 64.9689" stroke="#000000" stroke-width="4.58333" stroke-linejoin="round" stroke-miterlimit="10" fill="none" fill-rule="evenodd" transform="matrix(1 0 0 -1 2690.5 585.469)"/><path d="M0 0 0.000360892 64.9689" stroke="#000000" stroke-width="4.58333" stroke-linejoin="round" stroke-miterlimit="10" fill="none" fill-rule="evenodd" transform="matrix(1 0 0 -1 2690.5 650.469)"/><path d="M0 0 64.9689 64.9689" stroke="#000000" stroke-width="4.58333" stroke-linejoin="round" stroke-miterlimit="10" fill="none" fill-rule="evenodd" transform="matrix(1 0 0 -1 2690.5 650.469)"/><path d="M0 0 0.000360892 64.9689" stroke="#000000" stroke-width="4.58333" stroke-linejoin="round" stroke-miterlimit="10" fill="none" fill-rule="evenodd" transform="matrix(1 0 0 -1 2690.5 715.469)"/><path d="M0 0 64.9689 64.9689" stroke="#000000" stroke-width="4.58333" stroke-linejoin="round" stroke-miterlimit="10" fill="none" fill-rule="evenodd" transform="matrix(1 0 0 -1 2690.5 715.469)"/><path d="M0 0 0.000360892 64.9689" stroke="#000000" stroke-width="4.58333" stroke-linejoin="round" stroke-miterlimit="10" fill="none" fill-rule="evenodd" transform="matrix(1 0 0 -1 2690.5 780.469)"/><path d="M0 0 64.9689 64.9689" stroke="#000000" stroke-width="4.58333" stroke-linejoin="round" stroke-miterlimit="10" fill="none" fill-rule="evenodd" transform="matrix(1 0 0 -1 2690.5 780.469)"/><path d="M0 0 0.000360892 64.9689" stroke="#000000" stroke-width="4.58333" stroke-linejoin="round" stroke-miterlimit="10" fill="none" fill-rule="evenodd" transform="matrix(1 0 0 -1 2690.5 845.469)"/><path d="M0 0 64.9689 64.9689" stroke="#000000" stroke-width="4.58333" stroke-linejoin="round" stroke-miterlimit="10" fill="none" fill-rule="evenodd" transform="matrix(1 0 0 -1 2690.5 845.469)"/><path d="M0 0 0.000360892 64.9689" stroke="#000000" stroke-width="4.58333" stroke-linejoin="round" stroke-miterlimit="10" fill="none" fill-rule="evenodd" transform="matrix(1 0 0 -1 2690.5 910.469)"/><path d="M0 0 64.9689 64.9689" stroke="#000000" stroke-width="4.58333" stroke-linejoin="round" stroke-miterlimit="10" fill="none" fill-rule="evenodd" transform="matrix(1 0 0 -1 2690.5 910.469)"/><path d="M0 0 0.000360892 64.9689" stroke="#000000" stroke-width="4.58333" stroke-linejoin="round" stroke-miterlimit="10" fill="none" fill-rule="evenodd" transform="matrix(1 0 0 -1 2690.5 975.469)"/><path d="M0 0 64.9689 64.9689" stroke="#000000" stroke-width="4.58333" stroke-linejoin="round" stroke-miterlimit="10" fill="none" fill-rule="evenodd" transform="matrix(1 0 0 -1 2690.5 975.469)"/><path d="M0 0 0.000360892 64.9689" stroke="#000000" stroke-width="4.58333" stroke-linejoin="round" stroke-miterlimit="10" fill="none" fill-rule="evenodd" transform="matrix(1 0 0 -1 2690.5 1040.47)"/><path d="M0 0 64.9689 64.9689" stroke="#000000" stroke-width="4.58333" stroke-linejoin="round" stroke-miterlimit="10" fill="none" fill-rule="evenodd" transform="matrix(1 0 0 -1 2690.5 1040.47)"/><path d="M0 0 0.000360892 64.9689" stroke="#000000" stroke-width="4.58333" stroke-linejoin="round" stroke-miterlimit="10" fill="none" fill-rule="evenodd" transform="matrix(1 0 0 -1 2690.5 1235.47)"/><path d="M0 0 64.9689 64.9689" stroke="#000000" stroke-width="4.58333" stroke-linejoin="round" stroke-miterlimit="10" fill="none" fill-rule="evenodd" transform="matrix(1 0 0 -1 2690.5 1235.47)"/><path d="M0 0 0.000360892 64.9689" stroke="#000000" stroke-width="4.58333" stroke-linejoin="round" stroke-miterlimit="10" fill="none" fill-rule="evenodd" transform="matrix(1 0 0 -1 2690.5 1299.47)"/><path d="M0 0 64.9689 64.9689" stroke="#000000" stroke-width="4.58333" stroke-linejoin="round" stroke-miterlimit="10" fill="none" fill-rule="evenodd" transform="matrix(1 0 0 -1 2690.5 1299.47)"/><path d="M0 0 0.000360892 64.9689" stroke="#000000" stroke-width="4.58333" stroke-linejoin="round" stroke-miterlimit="10" fill="none" fill-rule="evenodd" transform="matrix(1 0 0 -1 2690.5 1364.47)"/><path d="M0 0 64.9689 64.9689" stroke="#000000" stroke-width="4.58333" stroke-linejoin="round" stroke-miterlimit="10" fill="none" fill-rule="evenodd" transform="matrix(1 0 0 -1 2690.5 1364.47)"/><path d="M0 0 0.000360892 64.9689" stroke="#000000" stroke-width="4.58333" stroke-linejoin="round" stroke-miterlimit="10" fill="none" fill-rule="evenodd" transform="matrix(1 0 0 -1 2690.5 1429.47)"/><path d="M0 0 64.9689 64.9689" stroke="#000000" stroke-width="4.58333" stroke-linejoin="round" stroke-miterlimit="10" fill="none" fill-rule="evenodd" transform="matrix(1 0 0 -1 2690.5 1429.47)"/><path d="M0 0 0.000360892 64.9689" stroke="#000000" stroke-width="4.58333" stroke-linejoin="round" stroke-miterlimit="10" fill="none" fill-rule="evenodd" transform="matrix(1 0 0 -1 2690.5 1494.47)"/><path d="M0 0 64.9689 64.9689" stroke="#000000" stroke-width="4.58333" stroke-linejoin="round" stroke-miterlimit="10" fill="none" fill-rule="evenodd" transform="matrix(1 0 0 -1 2690.5 1494.47)"/><path d="M0 0 0.000360892 64.9689" stroke="#000000" stroke-width="4.58333" stroke-linejoin="round" stroke-miterlimit="10" fill="none" fill-rule="evenodd" transform="matrix(1 0 0 -1 2690.5 1559.47)"/><path d="M0 0 64.9689 64.9689" stroke="#000000" stroke-width="4.58333" stroke-linejoin="round" stroke-miterlimit="10" fill="none" fill-rule="evenodd" transform="matrix(1 0 0 -1 2690.5 1559.47)"/><path d="M0 0 0.000360892 64.9689" stroke="#000000" stroke-width="4.58333" stroke-linejoin="round" stroke-miterlimit="10" fill="none" fill-rule="evenodd" transform="matrix(1 0 0 -1 2690.5 1624.47)"/><path d="M0 0 64.9689 64.9689" stroke="#000000" stroke-width="4.58333" stroke-linejoin="round" stroke-miterlimit="10" fill="none" fill-rule="evenodd" transform="matrix(1 0 0 -1 2690.5 1624.47)"/><path d="M0 0 0.000360892 64.9689" stroke="#000000" stroke-width="4.58333" stroke-linejoin="round" stroke-miterlimit="10" fill="none" fill-rule="evenodd" transform="matrix(1 0 0 -1 2690.5 1689.47)"/><path d="M0 0 64.9689 64.9689" stroke="#000000" stroke-width="4.58333" stroke-linejoin="round" stroke-miterlimit="10" fill="none" fill-rule="evenodd" transform="matrix(1 0 0 -1 2690.5 1689.47)"/><rect x="1585.5" y="1234.5" width="390" height="390" stroke="#000000" stroke-width="4.58333" stroke-linejoin="round" stroke-miterlimit="10" fill="none"/><path d="M2690.44 1429.5 2560.5 1429.5" stroke="#000000" stroke-width="4.58333" stroke-linejoin="round" stroke-miterlimit="10" fill="none" fill-rule="evenodd"/><path d="M2495.5 1170.5 2560.47 1430.38" stroke="#000000" stroke-width="4.58333" stroke-linejoin="round" stroke-miterlimit="10" fill="none" fill-rule="evenodd"/><path d="M0 0 129.938 519.751" stroke="#000000" stroke-width="4.58333" stroke-linejoin="round" stroke-miterlimit="10" fill="none" fill-rule="evenodd" transform="matrix(-1 0 0 1 2495.44 1170.5)"/><path d="M2170.44 1429.5 2040.5 1429.5" stroke="#000000" stroke-width="4.58333" stroke-linejoin="round" stroke-miterlimit="10" fill="none" fill-rule="evenodd"/><path d="M2040.5 1299.5 2040.5 1559.38" stroke="#000000" stroke-width="4.58333" stroke-linejoin="round" stroke-miterlimit="10" fill="none" fill-rule="evenodd"/><path d="M0 0 64.9686 259.876" stroke="#000000" stroke-width="4.58333" stroke-linejoin="round" stroke-miterlimit="10" fill="none" fill-rule="evenodd" transform="matrix(-1 0 0 1 2235.47 1170.5)"/><path d="M2235.5 1170.5 2365.44 1690.25" stroke="#000000" stroke-width="4.58333" stroke-linejoin="round" stroke-miterlimit="10" fill="none" fill-rule="evenodd"/><path d="M675.5 1494.5 675.5 1754.38" stroke="#FF0000" stroke-width="4.58333" stroke-linejoin="round" stroke-miterlimit="10" stroke-dasharray="36.6667 13.75" fill="none" fill-rule="evenodd"/><path d="M1585.44 1429.5 1455.5 1429.5" stroke="#000000" stroke-width="4.58333" stroke-linejoin="round" stroke-miterlimit="10" fill="none" fill-rule="evenodd"/><path d="M1390.5 1170.5 1455.47 1430.38" stroke="#000000" stroke-width="4.58333" stroke-linejoin="round" stroke-miterlimit="10" fill="none" fill-rule="evenodd"/><path d="M0 0 129.938 519.751" stroke="#000000" stroke-width="4.58333" stroke-linejoin="round" stroke-miterlimit="10" fill="none" fill-rule="evenodd" transform="matrix(-1 0 0 1 1390.44 1170.5)"/><path d="M1065.44 1429.5 935.5 1429.5" stroke="#000000" stroke-width="4.58333" stroke-linejoin="round" stroke-miterlimit="10" fill="none" fill-rule="evenodd"/><path d="M935.5 1299.5 935.5 1559.38" stroke="#000000" stroke-width="4.58333" stroke-linejoin="round" stroke-miterlimit="10" fill="none" fill-rule="evenodd"/><path d="M0 0 64.9686 259.876" stroke="#000000" stroke-width="4.58333" stroke-linejoin="round" stroke-miterlimit="10" fill="none" fill-rule="evenodd" transform="matrix(-1 0 0 1 1130.47 1170.5)"/><path d="M1130.5 1170.5 1260.44 1690.25" stroke="#000000" stroke-width="4.58333" stroke-linejoin="round" stroke-miterlimit="10" fill="none" fill-rule="evenodd"/><path d="M0 0 194.907 0.000360892" stroke="#000000" stroke-width="4.58333" stroke-linejoin="round" stroke-miterlimit="10" fill="none" fill-rule="evenodd" transform="matrix(-1 0 0 1 2690.41 780.5)"/><path d="M2430.5 520.5 2495.47 780.376" stroke="#000000" stroke-width="4.58333" stroke-linejoin="round" stroke-miterlimit="10" fill="none" fill-rule="evenodd"/><path d="M0 0 129.938 519.751" stroke="#000000" stroke-width="4.58333" stroke-linejoin="round" stroke-miterlimit="10" fill="none" fill-rule="evenodd" transform="matrix(-1 0 0 1 2430.44 520.5)"/><path d="M2170.5 520.5 2300.44 1040.25" stroke="#000000" stroke-width="4.58333" stroke-linejoin="round" stroke-miterlimit="10" fill="none" fill-rule="evenodd"/><path d="M0 0 129.938 519.751" stroke="#000000" stroke-width="4.58333" stroke-linejoin="round" stroke-miterlimit="10" fill="none" fill-rule="evenodd" transform="matrix(-1 0 0 1 2170.44 520.5)"/><path d="M1910.5 520.5 2040.44 1040.25" stroke="#000000" stroke-width="4.58333" stroke-linejoin="round" stroke-miterlimit="10" fill="none" fill-rule="evenodd"/><path d="M1065.44 780.5 935.5 780.5" stroke="#000000" stroke-width="4.58333" stroke-linejoin="round" stroke-miterlimit="10" fill="none" fill-rule="evenodd"/><path d="M0 0 64.9686 259.876" stroke="#000000" stroke-width="4.58333" stroke-linejoin="round" stroke-miterlimit="10" fill="none" fill-rule="evenodd" transform="matrix(-1 0 0 1 1130.47 520.5)"/><path d="M935.5 650.5 935.5 910.376" stroke="#000000" stroke-width="4.58333" stroke-linejoin="round" stroke-miterlimit="10" fill="none" fill-rule="evenodd"/><path d="M0 0 129.938 519.751" stroke="#000000" stroke-width="4.58333" stroke-linejoin="round" stroke-miterlimit="10" fill="none" fill-rule="evenodd" transform="matrix(-1 0 0 1 1910.44 520.5)"/><path d="M1650.5 520.5 1780.44 1040.25" stroke="#000000" stroke-width="4.58333" stroke-linejoin="round" stroke-miterlimit="10" fill="none" fill-rule="evenodd"/><path d="M0 0 129.938 519.751" stroke="#000000" stroke-width="4.58333" stroke-linejoin="round" stroke-miterlimit="10" fill="none" fill-rule="evenodd" transform="matrix(-1 0 0 1 1650.44 520.5)"/><path d="M1390.5 520.5 1520.44 1040.25" stroke="#000000" stroke-width="4.58333" stroke-linejoin="round" stroke-miterlimit="10" fill="none" fill-rule="evenodd"/><path d="M0 0 129.938 519.751" stroke="#000000" stroke-width="4.58333" stroke-linejoin="round" stroke-miterlimit="10" fill="none" fill-rule="evenodd" transform="matrix(-1 0 0 1 1390.44 520.5)"/><path d="M1130.5 520.5 1260.44 1040.25" stroke="#000000" stroke-width="4.58333" stroke-linejoin="round" stroke-miterlimit="10" fill="none" fill-rule="evenodd"/><rect x="481.5" y="585.5" width="389" height="1039" stroke="#000000" stroke-width="4.58333" stroke-linejoin="round" stroke-miterlimit="10" fill="none"/><path d="M1780.5 1494.5 1780.5 1754.38" stroke="#FF0000" stroke-width="4.58333" stroke-linejoin="round" stroke-miterlimit="10" stroke-dasharray="36.6667 13.75" fill="none" fill-rule="evenodd"/><path d="M1000.5 488 805.5 488 805.5 520.5 740.5 455.5 805.5 390.5 805.5 423 1000.5 423Z" stroke="#0000FF" stroke-width="4.58333" stroke-miterlimit="8" fill="none" fill-rule="evenodd"/><path d="M934.226 264.21 974.745 264.21 971.646 278.001 967.333 278.001C967.213 275.695 967.026 273.875 966.772 272.543 966.517 271.21 966.158 270.252 965.694 269.668 965.229 269.084 964.668 268.687 964.009 268.477 963.35 268.268 962.362 268.163 961.044 268.163L947.208 268.163 941.862 292.6 950.263 292.6C951.581 292.6 952.674 292.421 953.542 292.061 954.411 291.702 955.219 291.051 955.968 290.107 956.717 289.164 957.645 287.554 958.753 285.278L962.841 285.278 958.484 304.235 954.53 304.235C954.53 301.21 954.433 299.316 954.238 298.553 954.044 297.789 953.669 297.265 953.115 296.98 952.561 296.696 951.461 296.554 949.814 296.554L941.009 296.554 937.46 312.456C936.831 315.271 936.517 317.607 936.517 319.464 936.517 320.392 936.667 321.118 936.966 321.642 937.266 322.167 937.715 322.548 938.314 322.788 938.913 323.028 939.946 323.207 941.413 323.327L940.919 325.528 922.456 325.528 922.95 323.327C924.088 323.147 924.942 322.855 925.511 322.451 926.08 322.047 926.559 321.485 926.948 320.766 927.338 320.048 927.697 319.172 928.027 318.139 928.356 317.105 928.85 315.106 929.509 312.141L937.146 277.552C937.805 274.557 938.134 272.191 938.134 270.454 938.134 268.987 937.79 267.968 937.101 267.399 936.412 266.83 935.289 266.501 933.732 266.411Z" fill="#0000FF" fill-rule="evenodd"/><text fill="#000000" fill-opacity="0" font-family="Arial,Arial_MSFontService,sans-serif" font-size="61.3184" x="922.456" y="317.863">ğ¹</text><path d="M1011.77 305.583 1067.11 305.583 1067.11 311.557 1011.77 311.557ZM1011.77 286.94 1067.11 286.94 1067.11 292.915 1011.77 292.915Z" fill="#0000FF" fill-rule="evenodd"/><text fill="#000000" fill-opacity="0" font-family="Arial,Arial_MSFontService,sans-serif" font-size="24.6172" x="1011.77" y="308.48">=</text><path d="M1133.07 162.619 1133.07 166.483C1128.97 167.351 1125.25 171.364 1121.93 178.522 1118.6 185.679 1116.94 197 1116.94 212.483 1116.94 218.772 1117.91 228.393 1119.86 241.345 1121.81 254.298 1122.78 262.256 1122.78 265.221 1122.78 273.996 1121.9 281.131 1120.13 286.626 1118.36 292.122 1115.26 296.202 1110.83 298.867L1110.83 300.08C1115.26 302.746 1118.36 306.826 1120.13 312.322 1121.9 317.817 1122.78 324.952 1122.78 333.727 1122.78 336.692 1121.81 344.65 1119.86 357.603 1117.91 370.555 1116.94 380.176 1116.94 386.465 1116.94 401.649 1118.6 412.819 1121.93 419.977 1125.25 427.134 1128.97 431.147 1133.07 432.016L1133.07 435.879C1126.54 434.981 1120.73 430.024 1115.64 421.01 1110.55 411.996 1108 397.965 1108 378.918 1108 371.91 1109.02 362.297 1111.06 350.078 1113.09 337.86 1114.11 329.519 1114.11 325.057 1114.11 317.75 1113.04 312.119 1110.9 308.166 1108.76 304.213 1106.01 302.087 1102.66 301.787L1102.66 297.16C1106.01 296.861 1108.76 294.735 1110.9 290.782 1113.04 286.828 1114.11 281.198 1114.11 273.891 1114.11 269.429 1113.09 261.088 1111.06 248.869 1109.02 236.651 1108 227.037 1108 220.03 1108 200.683 1110.55 186.503 1115.64 177.489 1120.73 168.474 1126.54 163.518 1133.07 162.619Z" fill="#0000FF" fill-rule="evenodd"/><text fill="#000000" fill-opacity="0" font-family="Arial,Arial_MSFontService,sans-serif" font-size="273.26" x="1102.66" y="401.722">àµ</text><path d="M1143.56 241.606 1198.91 241.606 1198.91 247.58 1143.56 247.58Z" fill="#0000FF" fill-rule="evenodd"/><text fill="#000000" fill-opacity="0" font-family="Arial,Arial_MSFontService,sans-serif" font-size="5.97461" x="1143.56" y="246.834">âˆ’</text><path d="M1229.03 206.657 1231.63 206.657 1222.83 245.873 1224.26 245.873C1226.51 245.873 1229.03 244.893 1231.83 242.931 1234.63 240.969 1236.87 239.15 1238.55 237.473 1240.23 235.796 1241.06 234.179 1241.06 232.621 1241.06 231.154 1240.05 230.33 1238.01 230.151L1238.5 227.95 1253.06 227.95 1253.91 230.151C1251.43 232.397 1248.79 234.598 1246.01 236.754L1234.86 245.379 1239.27 261.596C1239.63 262.974 1239.95 263.969 1240.23 264.583 1240.52 265.197 1240.85 265.654 1241.22 265.953 1241.6 266.253 1242.1 266.403 1242.73 266.403 1243.5 266.403 1244.43 265.983 1245.51 265.145 1246.59 264.306 1247.82 263.093 1249.19 261.506L1251.76 264.022C1249.06 266.867 1246.83 268.843 1245.06 269.951 1243.3 271.06 1241.59 271.614 1239.94 271.614 1237.9 271.614 1236.29 271.037 1235.09 269.884 1233.89 268.731 1232.95 266.807 1232.26 264.112L1229.29 252.432C1229 251.264 1228.7 250.455 1228.4 250.006 1228.1 249.557 1227.75 249.257 1227.36 249.108 1226.97 248.958 1226.28 248.883 1225.3 248.883L1222.2 248.883 1217.53 270.895 1209.75 270.895 1221.3 219.549C1221.69 217.812 1221.96 216.457 1222.13 215.484 1222.29 214.51 1222.38 213.649 1222.38 212.901 1222.38 211.643 1221.99 210.759 1221.23 210.25 1220.47 209.741 1219.1 209.457 1217.12 209.397L1217.66 207.061Z" fill="#0000FF" fill-rule="evenodd"/><text fill="#000000" fill-opacity="0" font-family="Arial,Arial_MSFontService,sans-serif" font-size="64.957" x="1209.75" y="263.494">ğ‘˜</text><path d="M1276.46 227.186C1277.39 227.186 1278.21 227.291 1278.91 227.5 1279.61 227.71 1280.24 228.032 1280.78 228.466 1281.31 228.9 1281.79 229.462 1282.21 230.151 1282.63 230.84 1283.04 231.775 1283.43 232.958 1283.81 234.141 1284.18 235.609 1284.53 237.361 1284.87 239.113 1285.18 240.932 1285.45 242.819L1285.9 242.819C1288.77 238.776 1290.95 235.818 1292.43 233.947 1293.91 232.075 1295.17 230.682 1296.18 229.769 1297.2 228.855 1298.18 228.212 1299.13 227.837 1300.07 227.463 1301.32 227.276 1302.88 227.276 1304.28 227.276 1305.44 227.455 1306.34 227.815L1304.54 235.946 1301.39 235.946C1301.21 234.688 1300.69 234.059 1299.82 234.059 1299.55 234.059 1299.27 234.104 1298.97 234.194 1298.67 234.284 1298.3 234.478 1297.87 234.778 1297.43 235.077 1296.8 235.661 1295.96 236.53 1295.12 237.398 1294.18 238.461 1293.13 239.719 1292.08 240.977 1291 242.295 1289.89 243.672L1286.84 247.491C1287.38 250.366 1287.89 252.851 1288.37 254.948 1288.85 257.044 1289.27 258.788 1289.65 260.181 1290.02 261.574 1290.35 262.674 1290.64 263.483 1290.92 264.291 1291.23 264.898 1291.56 265.302 1291.89 265.706 1292.22 265.991 1292.57 266.156 1292.91 266.32 1293.31 266.403 1293.76 266.403 1294.57 266.403 1295.35 266.088 1296.12 265.459 1296.88 264.83 1297.98 263.408 1299.42 261.192L1302.34 263.123C1300.24 266.238 1298.35 268.432 1296.66 269.704 1294.96 270.977 1292.95 271.614 1290.61 271.614 1289.33 271.614 1288.23 271.382 1287.33 270.917 1286.44 270.453 1285.66 269.712 1285 268.694 1284.34 267.675 1283.76 266.088 1283.25 263.932 1282.32 260.099 1281.75 257.164 1281.54 255.127L1281.09 255.127C1277.92 259.59 1275.56 262.794 1274.01 264.741 1272.47 266.687 1271.2 268.125 1270.2 269.053 1269.19 269.981 1268.22 270.633 1267.28 271.007 1266.33 271.382 1265.08 271.569 1263.53 271.569 1262.12 271.569 1260.96 271.389 1260.07 271.03L1261.86 262.899 1265.01 262.899C1265.19 264.157 1265.71 264.785 1266.58 264.785 1267 264.785 1267.44 264.673 1267.91 264.449 1268.37 264.224 1269.04 263.685 1269.9 262.831 1270.77 261.978 1271.97 260.638 1273.5 258.811 1275.03 256.984 1277.24 254.244 1280.15 250.59 1279.7 248.224 1279.23 245.948 1278.75 243.762 1278.27 241.576 1277.78 239.539 1277.27 237.653 1276.76 235.766 1276.34 234.531 1276.01 233.947 1275.68 233.363 1275.33 232.958 1274.96 232.734 1274.58 232.509 1274.11 232.397 1273.54 232.397 1272.91 232.397 1272.34 232.539 1271.84 232.824 1271.33 233.108 1270.77 233.602 1270.17 234.306 1269.57 235.01 1268.78 236.11 1267.79 237.608L1264.87 235.676C1266.76 232.831 1268.57 230.705 1270.31 229.297 1272.05 227.89 1274.1 227.186 1276.46 227.186Z" fill="#0000FF" fill-rule="evenodd"/><text fill="#000000" fill-opacity="0" font-family="Arial,Arial_MSFontService,sans-serif" font-size="44.4277" x="1260.07" y="266.06">ğ‘¥</text><path d="M1332.55 195.185 1334.54 195.185C1334.5 196.385 1334.47 197.459 1334.44 198.408 1334.42 199.356 1334.41 200.278 1334.4 201.172 1334.38 202.066 1334.38 202.95 1334.38 203.822L1334.38 228.685C1334.38 229.361 1334.4 229.945 1334.44 230.435 1334.49 230.926 1334.56 231.341 1334.66 231.679 1334.76 232.017 1334.89 232.306 1335.05 232.546 1335.21 232.785 1335.4 232.993 1335.62 233.167 1335.88 233.429 1336.23 233.631 1336.67 233.772 1337.11 233.914 1337.66 234.034 1338.34 234.132 1339.01 234.23 1339.83 234.307 1340.77 234.361 1341.72 234.416 1342.86 234.454 1344.19 234.476L1344.19 237.322 1318.25 237.322 1318.25 234.476C1319.54 234.432 1320.63 234.383 1321.52 234.329 1322.42 234.274 1323.18 234.198 1323.81 234.1 1324.44 234.001 1324.95 233.892 1325.33 233.772 1325.72 233.652 1326.05 233.505 1326.33 233.331 1326.64 233.134 1326.9 232.922 1327.12 232.693 1327.33 232.464 1327.51 232.175 1327.64 231.826 1327.77 231.477 1327.87 231.052 1327.95 230.55 1328.03 230.048 1328.07 229.427 1328.07 228.685L1328.07 205.229C1328.07 204.378 1327.9 203.778 1327.57 203.429 1327.25 203.08 1326.78 202.906 1326.17 202.906 1325.49 202.906 1324.49 203.255 1323.16 203.953 1321.83 204.651 1320.1 205.687 1317.99 207.061 1317.71 206.559 1317.44 206.057 1317.2 205.556 1316.96 205.054 1316.71 204.542 1316.45 204.018 1319.16 202.535 1321.83 201.058 1324.48 199.585 1327.13 198.113 1329.82 196.646 1332.55 195.185Z" fill="#0000FF" fill-rule="evenodd"/><text fill="#000000" fill-opacity="0" font-family="Arial,Arial_MSFontService,sans-serif" font-size="42.1367" x="1316.45" y="232.055">1</text><path d="M1352.99 229.732 1359.6 229.732 1359.6 237.322 1352.99 237.322Z" fill="#0000FF" fill-rule="evenodd"/><text fill="#000000" fill-opacity="0" font-family="Arial,Arial_MSFontService,sans-serif" font-size="7.58984" x="1352.99" y="236.373">.</text><path d="M1392.06 193.386 1395 193.386 1394.55 201.303 1375.38 201.303 1375.38 214.094C1376.53 213.702 1377.8 213.386 1379.17 213.146 1380.54 212.906 1381.93 212.786 1383.33 212.786 1385.33 212.786 1387.15 213.064 1388.77 213.62 1390.4 214.176 1391.79 214.972 1392.96 216.008 1394.13 217.044 1395.03 218.298 1395.67 219.77 1396.32 221.243 1396.64 222.895 1396.64 224.727 1396.64 226.82 1396.28 228.685 1395.56 230.321 1394.84 231.957 1393.81 233.347 1392.47 234.492 1391.13 235.637 1389.49 236.509 1387.56 237.109 1385.63 237.709 1383.46 238.009 1381.04 238.009 1379.12 238.009 1377.15 237.824 1375.15 237.453 1373.14 237.082 1371.06 236.537 1368.9 235.817L1368.9 228.554 1373.09 228.554C1373.74 230.757 1374.72 232.333 1376.03 233.282 1377.34 234.23 1379.06 234.705 1381.2 234.705 1384.06 234.705 1386.21 233.963 1387.68 232.48 1389.14 230.997 1389.87 228.674 1389.87 225.512 1389.87 222.48 1389.09 220.228 1387.55 218.756 1386 217.284 1383.83 216.548 1381.04 216.548 1380.29 216.548 1379.62 216.559 1379.02 216.581 1378.42 216.603 1377.83 216.657 1377.24 216.744 1376.65 216.832 1376.07 216.951 1375.49 217.104 1374.91 217.257 1374.26 217.431 1373.54 217.628L1370.86 216.155 1370.86 195.578 1388.98 195.578C1389.51 195.556 1389.93 195.523 1390.24 195.48 1390.56 195.436 1390.82 195.338 1391.01 195.185 1391.21 195.033 1391.38 194.82 1391.54 194.547 1391.69 194.275 1391.86 193.888 1392.06 193.386Z" fill="#0000FF" fill-rule="evenodd"/><text fill="#000000" fill-opacity="0" font-family="Arial,Arial_MSFontService,sans-serif" font-size="44.623" x="1368.9" y="232.431">5</text><path d="M1411.95 260.473 1419.82 260.473C1420.24 262.569 1420.45 264.636 1420.45 266.672 1420.45 268.769 1420.09 270.685 1419.37 272.422 1418.65 274.159 1417.5 275.889 1415.93 277.611 1414.36 279.333 1412.19 281.227 1409.44 283.293L1407.01 280.553C1408.54 279.116 1409.65 277.82 1410.34 276.667 1411.03 275.514 1411.52 274.204 1411.82 272.737 1412.12 271.269 1412.27 269.427 1412.27 267.211 1412.27 264.935 1412.16 262.689 1411.95 260.473Z" fill="#0000FF" fill-rule="evenodd"/><text fill="#000000" fill-opacity="0" font-family="Arial,Arial_MSFontService,sans-serif" font-size="22.8203" x="1407.01" y="280.441">,</text><path d="M1643.44 205.983 1644.65 209.442C1637.64 211.748 1632.46 216.247 1629.09 222.941 1625.72 229.634 1624.03 238.042 1624.03 248.164 1624.03 258.646 1625.72 267.286 1629.09 274.084 1632.46 280.882 1637.6 285.435 1644.52 287.741L1643.44 291.2C1634.66 288.894 1627.94 283.93 1623.27 276.308 1618.6 268.686 1616.26 259.455 1616.26 248.614 1616.26 237.802 1618.6 228.571 1623.29 220.919 1627.98 213.268 1634.69 208.289 1643.44 205.983Z" fill="#0000FF" fill-rule="evenodd"/><text fill="#000000" fill-opacity="0" font-family="Arial,Arial_MSFontService,sans-serif" font-size="85.2168" x="1616.26" y="280.547">(</text><path d="M1663.73 227.186C1664.66 227.186 1665.48 227.291 1666.18 227.5 1666.88 227.71 1667.5 228.032 1668.04 228.466 1668.58 228.9 1669.06 229.462 1669.48 230.151 1669.9 230.84 1670.31 231.775 1670.69 232.958 1671.08 234.141 1671.45 235.609 1671.79 237.361 1672.14 239.113 1672.45 240.932 1672.72 242.819L1673.17 242.819C1676.04 238.776 1678.22 235.818 1679.7 233.947 1681.18 232.075 1682.43 230.682 1683.45 229.769 1684.47 228.855 1685.45 228.212 1686.39 227.837 1687.34 227.463 1688.59 227.276 1690.15 227.276 1691.55 227.276 1692.71 227.455 1693.6 227.815L1691.81 235.946 1688.66 235.946C1688.48 234.688 1687.96 234.059 1687.09 234.059 1686.82 234.059 1686.54 234.104 1686.24 234.194 1685.94 234.284 1685.57 234.478 1685.14 234.778 1684.7 235.077 1684.07 235.661 1683.23 236.53 1682.39 237.398 1681.45 238.461 1680.4 239.719 1679.35 240.977 1678.27 242.295 1677.16 243.672L1674.11 247.491C1674.65 250.366 1675.16 252.851 1675.64 254.948 1676.11 257.044 1676.54 258.788 1676.92 260.181 1677.29 261.574 1677.62 262.674 1677.9 263.483 1678.19 264.291 1678.5 264.898 1678.83 265.302 1679.15 265.706 1679.49 265.991 1679.84 266.156 1680.18 266.32 1680.58 266.403 1681.03 266.403 1681.83 266.403 1682.62 266.088 1683.38 265.459 1684.15 264.83 1685.25 263.408 1686.69 261.192L1689.61 263.123C1687.51 266.238 1685.62 268.432 1683.92 269.704 1682.23 270.977 1680.22 271.614 1677.88 271.614 1676.59 271.614 1675.5 271.382 1674.6 270.917 1673.7 270.453 1672.93 269.712 1672.27 268.694 1671.61 267.675 1671.02 266.088 1670.51 263.932 1669.59 260.099 1669.02 257.164 1668.81 255.127L1668.36 255.127C1665.18 259.59 1662.83 262.794 1661.28 264.741 1659.74 266.687 1658.47 268.125 1657.46 269.053 1656.46 269.981 1655.49 270.633 1654.54 271.007 1653.6 271.382 1652.35 271.569 1650.79 271.569 1649.39 271.569 1648.23 271.389 1647.33 271.03L1649.13 262.899 1652.28 262.899C1652.46 264.157 1652.98 264.785 1653.85 264.785 1654.27 264.785 1654.71 264.673 1655.17 264.449 1655.64 264.224 1656.3 263.685 1657.17 262.831 1658.04 261.978 1659.24 260.638 1660.77 258.811 1662.29 256.984 1664.51 254.244 1667.42 250.59 1666.97 248.224 1666.5 245.948 1666.02 243.762 1665.54 241.576 1665.05 239.539 1664.54 237.653 1664.03 235.766 1663.61 234.531 1663.28 233.947 1662.95 233.363 1662.6 232.958 1662.23 232.734 1661.85 232.509 1661.38 232.397 1660.81 232.397 1660.18 232.397 1659.61 232.539 1659.1 232.824 1658.6 233.108 1658.04 233.602 1657.44 234.306 1656.84 235.01 1656.05 236.11 1655.06 237.608L1652.14 235.676C1654.03 232.831 1655.84 230.705 1657.58 229.297 1659.31 227.89 1661.37 227.186 1663.73 227.186Z" fill="#0000FF" fill-rule="evenodd"/><text fill="#000000" fill-opacity="0" font-family="Arial,Arial_MSFontService,sans-serif" font-size="44.4277" x="1647.33" y="266.06">ğ‘¥</text><path d="M1729.61 269.862 1784.96 269.862 1784.96 275.836 1729.61 275.836ZM1729.61 213.395 1785.14 235.002 1785.14 241.291 1729.61 262.899 1729.61 256.16 1777.72 238.147 1729.61 220.133Z" fill="#0000FF" fill-rule="evenodd"/><text fill="#000000" fill-opacity="0" font-family="Arial,Arial_MSFontService,sans-serif" font-size="62.4414" x="1729.61" y="268.031">â‰¥</text><path d="M1842.6 212.676C1840.53 212.676 1838.8 213.29 1837.41 214.518 1836.02 215.746 1834.9 217.513 1834.04 219.819 1833.19 222.125 1832.58 224.932 1832.22 228.242 1831.86 231.551 1831.68 235.287 1831.68 239.45 1831.68 249.213 1832.59 256.378 1834.4 260.945 1836.21 265.512 1839.02 267.795 1842.82 267.795 1846.45 267.795 1849.14 265.646 1850.89 261.349 1852.64 257.051 1853.52 250.395 1853.52 241.381 1853.52 234.493 1853.07 228.915 1852.17 224.648 1851.27 220.38 1850.02 217.318 1848.42 215.461 1846.81 213.604 1844.88 212.676 1842.6 212.676ZM1842.82 208.858C1849.38 208.858 1854.26 211.388 1857.47 216.45 1860.67 221.511 1862.28 229.162 1862.28 239.405 1862.28 250.006 1860.56 258.025 1857.13 263.46 1853.7 268.896 1848.69 271.614 1842.11 271.614 1835.64 271.614 1830.82 269.068 1827.66 263.977 1824.5 258.886 1822.92 251.159 1822.92 240.797 1822.92 235.287 1823.41 230.525 1824.38 226.512 1825.36 222.499 1826.72 219.182 1828.47 216.562 1830.22 213.941 1832.33 212.002 1834.78 210.744 1837.24 209.487 1839.92 208.858 1842.82 208.858Z" fill="#0000FF" fill-rule="evenodd"/><text fill="#000000" fill-opacity="0" font-family="Arial,Arial_MSFontService,sans-serif" font-size="62.7559" x="1822.92" y="263.769">0</text><path d="M1871.04 205.983C1879.78 208.289 1886.5 213.268 1891.19 220.919 1895.87 228.571 1898.22 237.802 1898.22 248.614 1898.22 259.455 1895.88 268.686 1891.21 276.308 1886.54 283.93 1879.81 288.894 1871.04 291.2L1869.96 287.741C1876.88 285.435 1882.02 280.882 1885.39 274.084 1888.76 267.286 1890.44 258.646 1890.44 248.164 1890.44 238.042 1888.77 229.634 1885.41 222.941 1882.06 216.247 1876.86 211.748 1869.83 209.442Z" fill="#0000FF" fill-rule="evenodd"/><text fill="#000000" fill-opacity="0" font-family="Arial,Arial_MSFontService,sans-serif" font-size="85.2168" x="1869.83" y="280.547">)</text><path d="M1161.1 326.801C1159.04 326.801 1157.31 327.415 1155.92 328.643 1154.52 329.871 1153.4 331.638 1152.55 333.944 1151.69 336.25 1151.09 339.057 1150.73 342.367 1150.37 345.676 1150.19 349.412 1150.19 353.575 1150.19 363.338 1151.09 370.503 1152.91 375.07 1154.72 379.637 1157.53 381.92 1161.33 381.92 1164.95 381.92 1167.64 379.771 1169.39 375.474 1171.14 371.176 1172.02 364.52 1172.02 355.506 1172.02 348.618 1171.57 343.04 1170.67 338.773 1169.77 334.505 1168.52 331.443 1166.92 329.586 1165.32 327.729 1163.38 326.801 1161.1 326.801ZM1161.33 322.983C1167.89 322.983 1172.77 325.513 1175.97 330.575 1179.18 335.636 1180.78 343.287 1180.78 353.53 1180.78 364.131 1179.07 372.15 1175.64 377.585 1172.21 383.021 1167.2 385.739 1160.61 385.739 1154.14 385.739 1149.33 383.193 1146.17 378.102 1143.01 373.011 1141.43 365.284 1141.43 354.922 1141.43 349.412 1141.91 344.65 1142.89 340.637 1143.86 336.624 1145.22 333.307 1146.98 330.687 1148.73 328.066 1150.83 326.127 1153.29 324.869 1155.74 323.612 1158.42 322.983 1161.33 322.983Z" fill="#0000FF" fill-rule="evenodd"/><text fill="#000000" fill-opacity="0" font-family="Arial,Arial_MSFontService,sans-serif" font-size="62.7559" x="1141.43" y="377.894">0</text><path d="M1192.64 374.598 1200.5 374.598C1200.92 376.694 1201.13 378.761 1201.13 380.797 1201.13 382.894 1200.77 384.81 1200.05 386.547 1199.34 388.284 1198.19 390.014 1196.62 391.736 1195.05 393.458 1192.88 395.352 1190.13 397.418L1187.7 394.678C1189.23 393.241 1190.34 391.945 1191.03 390.792 1191.71 389.639 1192.21 388.329 1192.51 386.862 1192.81 385.394 1192.96 383.552 1192.96 381.336 1192.96 379.06 1192.85 376.814 1192.64 374.598Z" fill="#0000FF" fill-rule="evenodd"/><text fill="#000000" fill-opacity="0" font-family="Arial,Arial_MSFontService,sans-serif" font-size="22.8203" x="1187.7" y="394.566">,</text><path d="M1644.7 320.108 1645.91 323.567C1638.9 325.873 1633.72 330.372 1630.35 337.066 1626.98 343.759 1625.29 352.167 1625.29 362.289 1625.29 372.771 1626.98 381.411 1630.35 388.209 1633.72 395.007 1638.86 399.56 1645.78 401.866L1644.7 405.325C1635.92 403.019 1629.2 398.055 1624.53 390.433 1619.86 382.811 1617.52 373.58 1617.52 362.739 1617.52 351.927 1619.86 342.696 1624.55 335.044 1629.24 327.393 1635.95 322.414 1644.7 320.108Z" fill="#0000FF" fill-rule="evenodd"/><text fill="#000000" fill-opacity="0" font-family="Arial,Arial_MSFontService,sans-serif" font-size="85.2168" x="1617.52" y="394.672">(</text><path d="M1664.99 341.311C1665.92 341.311 1666.74 341.416 1667.44 341.625 1668.14 341.835 1668.77 342.157 1669.3 342.591 1669.84 343.025 1670.32 343.587 1670.74 344.276 1671.16 344.965 1671.57 345.9 1671.95 347.083 1672.34 348.266 1672.71 349.734 1673.06 351.486 1673.4 353.238 1673.71 355.057 1673.98 356.944L1674.43 356.944C1677.3 352.901 1679.48 349.943 1680.96 348.072 1682.44 346.2 1683.69 344.807 1684.71 343.894 1685.73 342.98 1686.71 342.337 1687.66 341.962 1688.6 341.588 1689.85 341.401 1691.41 341.401 1692.81 341.401 1693.97 341.58 1694.86 341.94L1693.07 350.071 1689.92 350.071C1689.74 348.813 1689.22 348.184 1688.35 348.184 1688.08 348.184 1687.8 348.229 1687.5 348.319 1687.2 348.409 1686.83 348.603 1686.4 348.903 1685.96 349.202 1685.33 349.786 1684.49 350.655 1683.65 351.523 1682.71 352.586 1681.66 353.844 1680.61 355.102 1679.53 356.42 1678.42 357.797L1675.37 361.616C1675.91 364.491 1676.42 366.976 1676.9 369.073 1677.38 371.169 1677.8 372.913 1678.18 374.306 1678.55 375.699 1678.88 376.799 1679.16 377.608 1679.45 378.416 1679.76 379.023 1680.09 379.427 1680.42 379.831 1680.75 380.116 1681.1 380.281 1681.44 380.445 1681.84 380.528 1682.29 380.528 1683.1 380.528 1683.88 380.213 1684.65 379.584 1685.41 378.955 1686.51 377.533 1687.95 375.317L1690.87 377.248C1688.77 380.363 1686.88 382.557 1685.18 383.829 1683.49 385.102 1681.48 385.739 1679.14 385.739 1677.85 385.739 1676.76 385.507 1675.86 385.042 1674.96 384.578 1674.19 383.837 1673.53 382.819 1672.87 381.8 1672.28 380.213 1671.78 378.057 1670.85 374.224 1670.28 371.289 1670.07 369.252L1669.62 369.252C1666.44 373.715 1664.09 376.919 1662.54 378.866 1661 380.812 1659.73 382.25 1658.73 383.178 1657.72 384.106 1656.75 384.758 1655.81 385.132 1654.86 385.507 1653.61 385.694 1652.05 385.694 1650.65 385.694 1649.49 385.514 1648.6 385.155L1650.39 377.024 1653.54 377.024C1653.72 378.282 1654.24 378.91 1655.11 378.91 1655.53 378.91 1655.97 378.798 1656.43 378.574 1656.9 378.349 1657.56 377.81 1658.43 376.956 1659.3 376.103 1660.5 374.763 1662.03 372.936 1663.55 371.109 1665.77 368.369 1668.68 364.715 1668.23 362.349 1667.76 360.073 1667.28 357.887 1666.8 355.701 1666.31 353.664 1665.8 351.778 1665.29 349.891 1664.87 348.656 1664.54 348.072 1664.21 347.488 1663.86 347.083 1663.49 346.859 1663.11 346.634 1662.64 346.522 1662.07 346.522 1661.44 346.522 1660.87 346.664 1660.36 346.949 1659.86 347.233 1659.3 347.727 1658.7 348.431 1658.1 349.135 1657.31 350.235 1656.32 351.733L1653.4 349.801C1655.29 346.956 1657.1 344.83 1658.84 343.422 1660.57 342.015 1662.63 341.311 1664.99 341.311Z" fill="#0000FF" fill-rule="evenodd"/><text fill="#000000" fill-opacity="0" font-family="Arial,Arial_MSFontService,sans-serif" font-size="44.4277" x="1648.6" y="380.185">ğ‘¥</text><path d="M1786.4 330.844 1786.4 337.582 1737.61 358.741 1786.4 379.899 1786.4 386.637 1730.87 361.885 1730.87 355.596Z" fill="#0000FF" fill-rule="evenodd"/><text fill="#000000" fill-opacity="0" font-family="Arial,Arial_MSFontService,sans-serif" font-size="55.793" x="1730.87" y="379.663">&lt;</text><path d="M1843.86 326.801C1841.79 326.801 1840.06 327.415 1838.67 328.643 1837.28 329.871 1836.16 331.638 1835.3 333.944 1834.45 336.25 1833.84 339.057 1833.48 342.367 1833.12 345.676 1832.94 349.412 1832.94 353.575 1832.94 363.338 1833.85 370.503 1835.66 375.07 1837.47 379.637 1840.28 381.92 1844.08 381.92 1847.71 381.92 1850.4 379.771 1852.15 375.474 1853.9 371.176 1854.78 364.52 1854.78 355.506 1854.78 348.618 1854.33 343.04 1853.43 338.773 1852.53 334.505 1851.28 331.443 1849.68 329.586 1848.08 327.729 1846.14 326.801 1843.86 326.801ZM1844.08 322.983C1850.64 322.983 1855.52 325.513 1858.73 330.575 1861.93 335.636 1863.54 343.287 1863.54 353.53 1863.54 364.131 1861.82 372.15 1858.39 377.585 1854.96 383.021 1849.95 385.739 1843.37 385.739 1836.9 385.739 1832.08 383.193 1828.92 378.102 1825.76 373.011 1824.18 365.284 1824.18 354.922 1824.18 349.412 1824.67 344.65 1825.64 340.637 1826.62 336.624 1827.98 333.307 1829.73 330.687 1831.48 328.066 1833.59 326.127 1836.04 324.869 1838.5 323.612 1841.18 322.983 1844.08 322.983Z" fill="#0000FF" fill-rule="evenodd"/><text fill="#000000" fill-opacity="0" font-family="Arial,Arial_MSFontService,sans-serif" font-size="62.7559" x="1824.18" y="377.894">0</text><path d="M1872.3 320.108C1881.04 322.414 1887.76 327.393 1892.45 335.044 1897.13 342.696 1899.48 351.927 1899.48 362.739 1899.48 373.58 1897.14 382.811 1892.47 390.433 1887.8 398.055 1881.07 403.019 1872.3 405.325L1871.22 401.866C1878.14 399.56 1883.28 395.007 1886.65 388.209 1890.02 381.411 1891.71 372.771 1891.71 362.289 1891.71 352.167 1890.03 343.759 1886.67 337.066 1883.32 330.372 1878.12 325.873 1871.09 323.567Z" fill="#0000FF" fill-rule="evenodd"/><text fill="#000000" fill-opacity="0" font-family="Arial,Arial_MSFontService,sans-serif" font-size="85.2168" x="1871.09" y="394.672">)</text><path d="M1997.56 348.159 1997.56 355.976 1957.31 355.976 1957.31 372.732 1997.56 372.732 1997.56 380.638 2014.18 364.331ZM1993.16 341.69 1997.25 341.69 2018.95 362.849 2018.95 365.903 1997.25 387.062 1993.16 387.062 1993.16 376.864 1952.91 376.864 1952.91 351.888 1993.16 351.888Z" fill="#00B050" fill-rule="evenodd"/><text fill="#000000" fill-opacity="0" font-family="Arial,Arial_MSFontService,sans-serif" font-size="45.3711" x="1952.91" y="381.39">â‡¨</text><text fill="#00B050" font-family="Times New Roman,Times New Roman_MSFontService,sans-serif" font-weight="400" font-size="92" transform="matrix(1 0 0 1 2047.48 391)">replace weak spring</text><path d="M156.5 1072.75 352 1072.75 352 1040.5 416.5 1105 352 1169.5 352 1137.25 156.5 1137.25Z" stroke="#000000" stroke-width="4.58333" stroke-miterlimit="8" fill="none" fill-rule="evenodd"/><path d="M267.233 1184.21 280.161 1184.21 290.86 1215.78C292.4 1220.32 293.589 1224.15 294.427 1227.29L294.872 1227.29C295.089 1225.64 295.582 1222.9 296.352 1219.06 297.122 1215.23 297.831 1211.88 298.479 1209.01L301.316 1196.24C301.911 1193.57 302.208 1191.4 302.208 1189.72 302.208 1188.45 301.89 1187.57 301.255 1187.07 300.621 1186.57 299.614 1186.28 298.236 1186.19L298.682 1184.21 312.867 1184.21 312.421 1186.19C311.394 1186.41 310.658 1186.65 310.212 1186.92 309.766 1187.19 309.368 1187.6 309.016 1188.14 308.665 1188.68 308.301 1189.52 307.922 1190.67 307.544 1191.82 307.071 1193.69 306.504 1196.29L296.98 1239.53 291.468 1239.53 279.634 1204.76C278.202 1200.59 276.946 1196.45 275.865 1192.31L275.338 1192.31C275.176 1193.69 274.73 1196.32 274.001 1200.2 273.271 1204.07 272.501 1207.86 271.691 1211.56L268.124 1227.73C267.557 1230.3 267.273 1232.41 267.273 1234.06 267.273 1235.27 267.577 1236.13 268.185 1236.63 268.793 1237.13 269.813 1237.43 271.245 1237.54L270.799 1239.53 256.615 1239.53 257.06 1237.54C258.087 1237.38 258.857 1237.12 259.371 1236.75 259.884 1236.39 260.316 1235.88 260.667 1235.23 261.019 1234.58 261.343 1233.79 261.64 1232.86 261.937 1231.93 262.383 1230.13 262.977 1227.45L269.867 1196.24C270.137 1195.08 270.353 1193.98 270.516 1192.92 270.678 1191.87 270.759 1190.8 270.759 1189.72 270.759 1188.45 270.441 1187.57 269.806 1187.07 269.171 1186.57 268.165 1186.28 266.787 1186.19Z" fill-rule="evenodd"/><text fill="#000000" fill-opacity="0" font-family="Arial,Arial_MSFontService,sans-serif" font-size="55.3198" x="256.615" y="1232.61">ğ‘</text><path d="M659.522 1793.38C660.36 1793.38 661.096 1793.48 661.731 1793.66 662.366 1793.85 662.926 1794.14 663.413 1794.54 663.899 1794.93 664.331 1795.43 664.709 1796.06 665.088 1796.68 665.452 1797.52 665.804 1798.59 666.155 1799.66 666.486 1800.98 666.797 1802.56 667.107 1804.14 667.384 1805.78 667.627 1807.48L668.033 1807.48C670.626 1803.84 672.592 1801.17 673.929 1799.48 675.267 1797.79 676.395 1796.53 677.313 1795.71 678.232 1794.89 679.117 1794.31 679.968 1793.97 680.819 1793.63 681.947 1793.46 683.352 1793.46 684.622 1793.46 685.662 1793.62 686.473 1793.95L684.852 1801.28 682.015 1801.28C681.853 1800.15 681.38 1799.58 680.596 1799.58 680.353 1799.58 680.096 1799.62 679.826 1799.7 679.556 1799.78 679.225 1799.96 678.833 1800.23 678.441 1800.5 677.867 1801.03 677.111 1801.81 676.354 1802.59 675.503 1803.55 674.558 1804.69 673.612 1805.82 672.639 1807.01 671.64 1808.25L668.884 1811.7C669.37 1814.29 669.829 1816.54 670.262 1818.43 670.694 1820.32 671.079 1821.89 671.417 1823.15 671.754 1824.4 672.052 1825.4 672.308 1826.13 672.565 1826.86 672.842 1827.4 673.139 1827.77 673.436 1828.13 673.74 1828.39 674.051 1828.54 674.362 1828.69 674.72 1828.76 675.125 1828.76 675.854 1828.76 676.564 1828.48 677.253 1827.91 677.942 1827.34 678.935 1826.06 680.231 1824.06L682.866 1825.8C680.974 1828.61 679.266 1830.59 677.739 1831.74 676.212 1832.89 674.396 1833.46 672.288 1833.46 671.126 1833.46 670.14 1833.25 669.33 1832.83 668.519 1832.42 667.817 1831.75 667.222 1830.83 666.628 1829.91 666.101 1828.48 665.642 1826.53 664.804 1823.07 664.291 1820.43 664.102 1818.59L663.696 1818.59C660.832 1822.61 658.705 1825.51 657.313 1827.26 655.922 1829.02 654.773 1830.31 653.868 1831.15 652.963 1831.99 652.085 1832.58 651.234 1832.91 650.383 1833.25 649.255 1833.42 647.85 1833.42 646.58 1833.42 645.54 1833.26 644.729 1832.94L646.351 1825.6 649.188 1825.6C649.35 1826.73 649.822 1827.3 650.606 1827.3 650.984 1827.3 651.383 1827.2 651.802 1827 652.22 1826.8 652.821 1826.31 653.605 1825.54 654.388 1824.77 655.469 1823.56 656.847 1821.91 658.225 1820.26 660.224 1817.79 662.845 1814.5 662.44 1812.36 662.021 1810.31 661.589 1808.34 661.157 1806.36 660.711 1804.53 660.251 1802.82 659.792 1801.12 659.414 1800.01 659.117 1799.48 658.82 1798.95 658.502 1798.59 658.164 1798.39 657.827 1798.18 657.401 1798.08 656.888 1798.08 656.32 1798.08 655.807 1798.21 655.348 1798.47 654.888 1798.72 654.388 1799.17 653.848 1799.8 653.308 1800.44 652.592 1801.43 651.7 1802.78L649.066 1801.04C650.768 1798.47 652.403 1796.56 653.97 1795.29 655.537 1794.02 657.388 1793.38 659.522 1793.38Z" fill="#FF0000" fill-rule="evenodd"/><text fill="#000000" fill-opacity="0" font-family="Arial,Arial_MSFontService,sans-serif" font-size="40.0815" x="644.729" y="1828.45">ğ‘¥</text><path d="M704.489 1813.97C703.099 1813.97 701.937 1814.34 701.004 1815.06 700.071 1815.79 699.331 1816.85 698.785 1818.25 698.239 1819.65 697.852 1821.36 697.623 1823.37 697.395 1825.39 697.281 1827.68 697.281 1830.24 697.281 1833.2 697.425 1835.75 697.713 1837.91 698.001 1840.06 698.447 1841.83 699.053 1843.22 699.659 1844.61 700.418 1845.64 701.332 1846.29 702.245 1846.95 703.337 1847.27 704.608 1847.27 705.799 1847.27 706.842 1846.97 707.735 1846.35 708.629 1845.74 709.369 1844.78 709.954 1843.48 710.54 1842.18 710.982 1840.53 711.28 1838.53 711.578 1836.54 711.727 1834.18 711.727 1831.46 711.727 1828.4 711.563 1825.77 711.235 1823.57 710.907 1821.36 710.446 1819.55 709.85 1818.13 709.254 1816.71 708.505 1815.66 707.601 1814.99 706.698 1814.31 705.66 1813.97 704.489 1813.97ZM704.608 1811.09C706.971 1811.09 708.991 1811.53 710.669 1812.41 712.347 1813.29 713.717 1814.56 714.78 1816.19 715.842 1817.83 716.621 1819.83 717.118 1822.2 717.614 1824.56 717.862 1827.23 717.862 1830.21 717.862 1836.82 716.691 1841.82 714.348 1845.2 712.005 1848.59 708.609 1850.28 704.161 1850.28 699.753 1850.28 696.477 1848.68 694.332 1845.49 692.188 1842.29 691.115 1837.45 691.115 1830.95 691.115 1827.56 691.448 1824.62 692.113 1822.14 692.778 1819.65 693.711 1817.59 694.913 1815.96 696.114 1814.32 697.539 1813.1 699.187 1812.29 700.835 1811.49 702.642 1811.09 704.608 1811.09Z" fill="#FF0000" fill-rule="evenodd"/><text fill="#000000" fill-opacity="0" font-family="Arial,Arial_MSFontService,sans-serif" font-size="39.1973" x="691.115" y="1845.38">0</text><path d="M1763.98 1804.94C1764.81 1804.94 1765.55 1805.03 1766.19 1805.22 1766.82 1805.41 1767.38 1805.7 1767.87 1806.09 1768.35 1806.48 1768.79 1806.99 1769.16 1807.61 1769.54 1808.23 1769.91 1809.08 1770.26 1810.14 1770.61 1811.21 1770.94 1812.54 1771.25 1814.12 1771.56 1815.7 1771.84 1817.34 1772.08 1819.04L1772.49 1819.04C1775.08 1815.39 1777.05 1812.72 1778.38 1811.04 1779.72 1809.35 1780.85 1808.09 1781.77 1807.27 1782.69 1806.44 1783.57 1805.86 1784.42 1805.52 1785.27 1805.19 1786.4 1805.02 1787.81 1805.02 1789.08 1805.02 1790.12 1805.18 1790.93 1805.5L1789.31 1812.84 1786.47 1812.84C1786.31 1811.7 1785.83 1811.14 1785.05 1811.14 1784.81 1811.14 1784.55 1811.18 1784.28 1811.26 1784.01 1811.34 1783.68 1811.52 1783.29 1811.79 1782.9 1812.06 1782.32 1812.58 1781.57 1813.37 1780.81 1814.15 1779.96 1815.11 1779.01 1816.24 1778.07 1817.38 1777.09 1818.57 1776.09 1819.81L1773.34 1823.26C1773.83 1825.85 1774.28 1828.09 1774.72 1829.98 1775.15 1831.87 1775.53 1833.45 1775.87 1834.7 1776.21 1835.96 1776.51 1836.95 1776.76 1837.68 1777.02 1838.41 1777.3 1838.96 1777.59 1839.32 1777.89 1839.69 1778.2 1839.95 1778.51 1840.09 1778.82 1840.24 1779.17 1840.32 1779.58 1840.32 1780.31 1840.32 1781.02 1840.03 1781.71 1839.47 1782.4 1838.9 1783.39 1837.62 1784.69 1835.62L1787.32 1837.36C1785.43 1840.17 1783.72 1842.15 1782.19 1843.3 1780.67 1844.44 1778.85 1845.02 1776.74 1845.02 1775.58 1845.02 1774.6 1844.81 1773.78 1844.39 1772.97 1843.97 1772.27 1843.3 1771.68 1842.38 1771.08 1841.47 1770.56 1840.03 1770.1 1838.09 1769.26 1834.63 1768.75 1831.98 1768.56 1830.14L1768.15 1830.14C1765.29 1834.17 1763.16 1837.06 1761.77 1838.82 1760.38 1840.57 1759.23 1841.87 1758.32 1842.71 1757.42 1843.55 1756.54 1844.13 1755.69 1844.47 1754.84 1844.81 1753.71 1844.98 1752.31 1844.98 1751.04 1844.98 1750 1844.82 1749.18 1844.49L1750.81 1837.16 1753.64 1837.16C1753.8 1838.29 1754.28 1838.86 1755.06 1838.86 1755.44 1838.86 1755.84 1838.76 1756.26 1838.55 1756.68 1838.35 1757.28 1837.87 1758.06 1837.1 1758.84 1836.33 1759.92 1835.12 1761.3 1833.47 1762.68 1831.82 1764.68 1829.35 1767.3 1826.05 1766.9 1823.92 1766.48 1821.86 1766.04 1819.89 1765.61 1817.92 1765.17 1816.08 1764.71 1814.38 1764.25 1812.68 1763.87 1811.56 1763.57 1811.04 1763.27 1810.51 1762.96 1810.14 1762.62 1809.94 1762.28 1809.74 1761.86 1809.64 1761.34 1809.64 1760.78 1809.64 1760.26 1809.77 1759.8 1810.02 1759.34 1810.28 1758.84 1810.73 1758.3 1811.36 1757.76 1812 1757.05 1812.99 1756.16 1814.34L1753.52 1812.6C1755.22 1810.03 1756.86 1808.11 1758.42 1806.84 1759.99 1805.57 1761.84 1804.94 1763.98 1804.94Z" fill="#FF0000" fill-rule="evenodd"/><text fill="#000000" fill-opacity="0" font-family="Arial,Arial_MSFontService,sans-serif" font-size="40.0815" x="1749.18" y="1840.01">ğ‘¥</text><path d="M1809.48 1822.85 1811.3 1822.85C1811.26 1823.94 1811.23 1824.92 1811.21 1825.78 1811.19 1826.65 1811.18 1827.49 1811.17 1828.3 1811.16 1829.12 1811.15 1829.92 1811.15 1830.71L1811.15 1853.35C1811.15 1853.97 1811.17 1854.5 1811.21 1854.94 1811.25 1855.39 1811.32 1855.77 1811.41 1856.08 1811.49 1856.38 1811.61 1856.65 1811.76 1856.87 1811.91 1857.08 1812.09 1857.27 1812.28 1857.43 1812.52 1857.67 1812.84 1857.85 1813.24 1857.98 1813.63 1858.11 1814.14 1858.22 1814.76 1858.31 1815.37 1858.4 1816.11 1858.47 1816.98 1858.52 1817.84 1858.57 1818.88 1858.6 1820.09 1858.62L1820.09 1861.21 1796.47 1861.21 1796.47 1858.62C1797.64 1858.58 1798.63 1858.54 1799.45 1858.49 1800.26 1858.44 1800.96 1858.37 1801.53 1858.28 1802.11 1858.19 1802.57 1858.09 1802.92 1857.98 1803.26 1857.87 1803.57 1857.74 1803.83 1857.58 1804.1 1857.4 1804.34 1857.21 1804.54 1857 1804.74 1856.79 1804.9 1856.53 1805.02 1856.21 1805.14 1855.89 1805.23 1855.5 1805.3 1855.05 1805.37 1854.59 1805.4 1854.03 1805.4 1853.35L1805.4 1831.99C1805.4 1831.22 1805.25 1830.67 1804.96 1830.36 1804.66 1830.04 1804.23 1829.88 1803.68 1829.88 1803.06 1829.88 1802.15 1830.2 1800.94 1830.83 1799.72 1831.47 1798.16 1832.41 1796.23 1833.66 1795.97 1833.21 1795.73 1832.75 1795.52 1832.29 1795.3 1831.84 1795.07 1831.37 1794.83 1830.89 1797.29 1829.54 1799.73 1828.2 1802.14 1826.86 1804.55 1825.52 1807 1824.18 1809.48 1822.85Z" fill="#FF0000" fill-rule="evenodd"/><text fill="#000000" fill-opacity="0" font-family="Arial,Arial_MSFontService,sans-serif" font-size="38.3633" x="1794.83" y="1856.42">1</text><path d="M1769.08 588.227 1771.43 588.227 1763.49 623.608 1764.79 623.608C1766.81 623.608 1769.09 622.723 1771.62 620.953 1774.14 619.183 1776.16 617.542 1777.67 616.029 1779.19 614.516 1779.94 613.057 1779.94 611.652 1779.94 610.328 1779.03 609.585 1777.19 609.423L1777.63 607.437 1790.77 607.437 1791.54 609.423C1789.29 611.449 1786.91 613.435 1784.4 615.381L1774.35 623.162 1778.32 637.792C1778.65 639.035 1778.94 639.933 1779.19 640.487 1779.45 641.041 1779.75 641.453 1780.09 641.723 1780.42 641.994 1780.88 642.129 1781.44 642.129 1782.15 642.129 1782.98 641.75 1783.96 640.994 1784.93 640.237 1786.04 639.143 1787.28 637.711L1789.59 639.981C1787.16 642.547 1785.15 644.331 1783.55 645.33 1781.96 646.33 1780.42 646.83 1778.93 646.83 1777.09 646.83 1775.63 646.31 1774.55 645.27 1773.47 644.229 1772.62 642.493 1772 640.062L1769.33 629.525C1769.06 628.471 1768.79 627.741 1768.52 627.336 1768.25 626.931 1767.93 626.661 1767.58 626.526 1767.23 626.391 1766.61 626.323 1765.72 626.323L1762.92 626.323 1758.71 646.181 1751.7 646.181 1762.11 599.859C1762.46 598.292 1762.71 597.069 1762.86 596.191 1763.01 595.313 1763.08 594.536 1763.08 593.861 1763.08 592.726 1762.74 591.929 1762.05 591.469 1761.36 591.01 1760.13 590.753 1758.34 590.699L1758.83 588.592Z" fill="#7030A0" fill-rule="evenodd"/><text fill="#000000" fill-opacity="0" font-family="Arial,Arial_MSFontService,sans-serif" font-size="58.6025" x="1751.7" y="639.505">ğ‘˜</text><path d="M1810.89 627.343C1809.5 627.343 1808.34 627.705 1807.41 628.43 1806.47 629.154 1805.73 630.217 1805.19 631.617 1804.64 633.017 1804.25 634.724 1804.03 636.74 1803.8 638.755 1803.68 641.044 1803.68 643.605 1803.68 646.564 1803.83 649.12 1804.11 651.275 1804.4 653.429 1804.85 655.202 1805.46 656.592 1806.06 657.982 1806.82 659.004 1807.73 659.659 1808.65 660.315 1809.74 660.642 1811.01 660.642 1812.2 660.642 1813.24 660.335 1814.14 659.719 1815.03 659.103 1815.77 658.145 1816.36 656.845 1816.94 655.544 1817.38 653.896 1817.68 651.9 1817.98 649.905 1818.13 647.547 1818.13 644.826 1818.13 641.768 1817.97 639.137 1817.64 636.933 1817.31 634.729 1816.85 632.917 1816.25 631.498 1815.66 630.078 1814.91 629.03 1814 628.355 1813.1 627.68 1812.06 627.343 1810.89 627.343ZM1811.01 624.453C1813.37 624.453 1815.39 624.895 1817.07 625.779 1818.75 626.662 1820.12 627.923 1821.18 629.562 1822.24 631.2 1823.02 633.2 1823.52 635.563 1824.02 637.926 1824.26 640.597 1824.26 643.575 1824.26 650.188 1823.09 655.187 1820.75 658.572 1818.41 661.958 1815.01 663.651 1810.56 663.651 1806.16 663.651 1802.88 662.052 1800.73 658.855 1798.59 655.658 1797.52 650.813 1797.52 644.32 1797.52 640.925 1797.85 637.986 1798.52 635.504 1799.18 633.022 1800.11 630.961 1801.32 629.323 1802.52 627.685 1803.94 626.464 1805.59 625.66 1807.24 624.855 1809.04 624.453 1811.01 624.453Z" fill="#7030A0" fill-rule="evenodd"/><text fill="#000000" fill-opacity="0" font-family="Arial,Arial_MSFontService,sans-serif" font-size="39.1973" x="1797.52" y="658.751">0</text><path d="M1249.33 1266.66 1251.68 1266.66 1243.74 1302.04 1245.04 1302.04C1247.06 1302.04 1249.34 1301.16 1251.87 1299.39 1254.39 1297.62 1256.41 1295.98 1257.92 1294.47 1259.44 1292.95 1260.19 1291.49 1260.19 1290.09 1260.19 1288.77 1259.27 1288.02 1257.44 1287.86L1257.88 1285.87 1271.01 1285.87 1271.78 1287.86C1269.54 1289.89 1267.16 1291.87 1264.65 1293.82L1254.6 1301.6 1258.57 1316.23C1258.9 1317.47 1259.19 1318.37 1259.44 1318.92 1259.7 1319.48 1260 1319.89 1260.34 1320.16 1260.67 1320.43 1261.13 1320.57 1261.69 1320.57 1262.4 1320.57 1263.23 1320.19 1264.21 1319.43 1265.18 1318.67 1266.29 1317.58 1267.53 1316.15L1269.84 1318.42C1267.41 1320.98 1265.39 1322.77 1263.8 1323.77 1262.21 1324.77 1260.67 1325.27 1259.18 1325.27 1257.34 1325.27 1255.88 1324.75 1254.8 1323.71 1253.72 1322.67 1252.87 1320.93 1252.25 1318.5L1249.58 1307.96C1249.31 1306.91 1249.03 1306.18 1248.76 1305.77 1248.49 1305.37 1248.18 1305.1 1247.83 1304.96 1247.48 1304.83 1246.86 1304.76 1245.97 1304.76L1243.17 1304.76 1238.96 1324.62 1231.95 1324.62 1242.36 1278.3C1242.71 1276.73 1242.96 1275.51 1243.11 1274.63 1243.26 1273.75 1243.33 1272.97 1243.33 1272.3 1243.33 1271.16 1242.99 1270.37 1242.3 1269.91 1241.61 1269.45 1240.38 1269.19 1238.59 1269.14L1239.08 1267.03Z" fill="#7030A0" fill-rule="evenodd"/><text fill="#000000" fill-opacity="0" font-family="Arial,Arial_MSFontService,sans-serif" font-size="58.6025" x="1231.95" y="1317.94">ğ‘˜</text><path d="M1291.68 1303.1 1293.5 1303.1C1293.46 1304.19 1293.43 1305.17 1293.41 1306.03 1293.39 1306.9 1293.37 1307.74 1293.36 1308.55 1293.35 1309.36 1293.35 1310.17 1293.35 1310.96L1293.35 1333.6C1293.35 1334.21 1293.37 1334.75 1293.41 1335.19 1293.45 1335.64 1293.51 1336.02 1293.6 1336.32 1293.69 1336.63 1293.81 1336.9 1293.96 1337.11 1294.11 1337.33 1294.28 1337.52 1294.48 1337.68 1294.72 1337.92 1295.04 1338.1 1295.43 1338.23 1295.83 1338.36 1296.34 1338.47 1296.95 1338.56 1297.57 1338.65 1298.31 1338.72 1299.17 1338.77 1300.04 1338.82 1301.07 1338.85 1302.28 1338.87L1302.28 1341.46 1278.66 1341.46 1278.66 1338.87C1279.84 1338.83 1280.83 1338.79 1281.64 1338.74 1282.46 1338.69 1283.15 1338.62 1283.73 1338.53 1284.3 1338.44 1284.77 1338.34 1285.11 1338.23 1285.46 1338.12 1285.76 1337.99 1286.02 1337.83 1286.3 1337.65 1286.54 1337.46 1286.74 1337.25 1286.94 1337.04 1287.09 1336.78 1287.21 1336.46 1287.33 1336.14 1287.43 1335.75 1287.5 1335.3 1287.57 1334.84 1287.6 1334.27 1287.6 1333.6L1287.6 1312.24C1287.6 1311.47 1287.45 1310.92 1287.15 1310.6 1286.86 1310.29 1286.43 1310.13 1285.87 1310.13 1285.26 1310.13 1284.34 1310.45 1283.13 1311.08 1281.92 1311.72 1280.35 1312.66 1278.43 1313.91 1278.17 1313.45 1277.93 1313 1277.71 1312.54 1277.49 1312.08 1277.26 1311.62 1277.03 1311.14 1279.49 1309.79 1281.93 1308.45 1284.34 1307.11 1286.75 1305.76 1289.2 1304.43 1291.68 1303.1Z" fill="#7030A0" fill-rule="evenodd"/><text fill="#000000" fill-opacity="0" font-family="Arial,Arial_MSFontService,sans-serif" font-size="38.3633" x="1277.03" y="1336.67">1</text><path d="M2353.82 1270.02 2356.17 1270.02 2348.23 1305.4 2349.52 1305.4C2351.55 1305.4 2353.83 1304.51 2356.35 1302.74 2358.88 1300.97 2360.9 1299.33 2362.41 1297.82 2363.93 1296.3 2364.68 1294.85 2364.68 1293.44 2364.68 1292.12 2363.76 1291.37 2361.93 1291.21L2362.37 1289.23 2375.5 1289.23 2376.27 1291.21C2374.03 1293.24 2371.65 1295.22 2369.14 1297.17L2359.09 1304.95 2363.06 1319.58C2363.39 1320.82 2363.68 1321.72 2363.93 1322.28 2364.19 1322.83 2364.49 1323.24 2364.82 1323.51 2365.16 1323.78 2365.61 1323.92 2366.18 1323.92 2366.88 1323.92 2367.72 1323.54 2368.69 1322.78 2369.67 1322.03 2370.77 1320.93 2372.02 1319.5L2374.33 1321.77C2371.9 1324.34 2369.88 1326.12 2368.29 1327.12 2366.69 1328.12 2365.15 1328.62 2363.67 1328.62 2361.83 1328.62 2360.37 1328.1 2359.29 1327.06 2358.21 1326.02 2357.36 1324.28 2356.74 1321.85L2354.06 1311.31C2353.79 1310.26 2353.52 1309.53 2353.25 1309.12 2352.98 1308.72 2352.67 1308.45 2352.32 1308.31 2351.97 1308.18 2351.35 1308.11 2350.46 1308.11L2347.66 1308.11 2343.45 1327.97 2336.43 1327.97 2346.85 1281.65C2347.2 1280.08 2347.45 1278.86 2347.6 1277.98 2347.75 1277.1 2347.82 1276.32 2347.82 1275.65 2347.82 1274.51 2347.48 1273.72 2346.79 1273.26 2346.1 1272.8 2344.86 1272.54 2343.08 1272.49L2343.57 1270.38Z" fill="#7030A0" fill-rule="evenodd"/><text fill="#000000" fill-opacity="0" font-family="Arial,Arial_MSFontService,sans-serif" font-size="58.6025" x="2336.43" y="1321.29">ğ‘˜</text><path d="M2395.75 1306.24C2397.81 1306.24 2399.58 1306.48 2401.03 1306.94 2402.49 1307.41 2403.68 1308.04 2404.59 1308.83 2405.51 1309.63 2406.17 1310.58 2406.57 1311.69 2406.98 1312.8 2407.19 1314.01 2407.19 1315.3 2407.19 1316.07 2407.13 1316.79 2407.02 1317.46 2406.91 1318.12 2406.72 1318.78 2406.46 1319.42 2406.19 1320.07 2405.84 1320.72 2405.4 1321.37 2404.96 1322.03 2404.42 1322.72 2403.76 1323.46 2403.26 1324.09 2402.62 1324.83 2401.82 1325.66 2401.03 1326.5 2400.16 1327.39 2399.22 1328.34 2398.27 1329.3 2397.29 1330.29 2396.25 1331.32 2395.22 1332.35 2394.22 1333.38 2393.25 1334.39 2392.27 1335.4 2391.38 1336.38 2390.57 1337.34 2389.75 1338.29 2389.09 1339.16 2388.57 1339.96L2399.59 1339.96C2400.52 1339.96 2401.27 1339.92 2401.82 1339.85 2402.38 1339.78 2402.84 1339.63 2403.21 1339.39 2403.58 1339.15 2403.89 1338.79 2404.15 1338.31 2404.41 1337.82 2404.7 1337.15 2405.04 1336.3L2407.81 1336.3C2407.71 1337.7 2407.62 1339.12 2407.53 1340.55 2407.44 1341.98 2407.34 1343.4 2407.25 1344.81L2382.02 1344.81 2382.02 1343.26C2382.49 1342.19 2383.05 1341.14 2383.69 1340.09 2384.32 1339.05 2385.04 1337.99 2385.83 1336.92 2386.62 1335.85 2387.53 1334.74 2388.54 1333.6 2389.55 1332.46 2390.67 1331.27 2391.91 1330.04 2393.77 1328.17 2395.29 1326.58 2396.46 1325.26 2397.63 1323.94 2398.56 1322.76 2399.23 1321.73 2399.91 1320.7 2400.37 1319.74 2400.62 1318.87 2400.87 1318 2400.99 1317.06 2400.99 1316.07 2400.99 1315.06 2400.85 1314.12 2400.56 1313.27 2400.27 1312.42 2399.86 1311.69 2399.32 1311.1 2398.79 1310.5 2398.11 1310.03 2397.28 1309.7 2396.46 1309.36 2395.51 1309.19 2394.44 1309.19 2392.59 1309.19 2391.04 1309.69 2389.79 1310.69 2388.54 1311.7 2387.57 1313.15 2386.87 1315.06L2382.97 1315.06 2382.97 1309.25C2385.51 1308.2 2387.85 1307.43 2389.98 1306.96 2392.12 1306.48 2394.04 1306.24 2395.75 1306.24Z" fill="#7030A0" fill-rule="evenodd"/><text fill="#000000" fill-opacity="0" font-family="Arial,Arial_MSFontService,sans-serif" font-size="38.5718" x="2382.02" y="1339.99">2</text><rect x="221" y="1887" width="1039" height="311" stroke="#D9D9D9" stroke-width="13.75" stroke-linejoin="round" stroke-miterlimit="10" fill="none"/><text font-family="Times New Roman,Times New Roman_MSFontService,sans-serif" font-weight="400" font-size="73" transform="matrix(1 0 0 1 253.816 1975)">Parameters</text><path d="M253.816 1981.69 417.316 1981.69 580.816 1981.69 580.816 1985.69 417.316 1985.69 253.816 1985.69Z" fill-rule="evenodd"/><text font-family="Times New Roman,Times New Roman_MSFontService,sans-serif" font-style="italic" font-weight="400" font-size="73" transform="matrix(1 0 0 1 253.816 2063)">N<tspan font-style="normal" font-size="73" x="67.0312" y="0">= 1.0,</tspan><tspan font-size="73" x="660" y="0">k</tspan><tspan font-style="normal" font-size="49" x="692.656" y="17">0</tspan><tspan font-style="normal" font-size="73" x="735.625" y="0">= 1.0</tspan><tspan font-size="73" x="0" y="88">k</tspan><tspan font-style="normal" font-size="49" x="32.6562" y="105">1</tspan><tspan font-style="normal" font-size="73" x="75.625" y="88">= 2.0,</tspan><tspan font-size="73" x="660" y="88">k</tspan><tspan font-style="normal" font-size="49" x="692.656" y="105">2</tspan><tspan font-style="normal" font-size="73" x="735.625" y="88">= 4.0</tspan></text><rect x="1390" y="1887" width="1299" height="489" stroke="#D9D9D9" stroke-width="13.75" stroke-linejoin="round" stroke-miterlimit="10" fill="none"/><text font-family="Times New Roman,Times New Roman_MSFontService,sans-serif" font-weight="400" font-size="73" transform="matrix(1 0 0 1 1423.14 1975)">Initial Value</text><path d="M1423.14 1981.69 1603.64 1981.69 1784.14 1981.69 1784.14 1985.69 1603.64 1985.69 1423.14 1985.69Z" fill-rule="evenodd"/><text font-family="Times New Roman,Times New Roman_MSFontService,sans-serif" font-style="italic" font-weight="400" font-size="73" transform="matrix(1 0 0 1 1423.14 2063)">x<tspan font-style="normal" font-size="49" x="32.6563" y="17">0</tspan><tspan font-style="normal" font-size="73" x="75.625" y="0">= </tspan><tspan font-style="normal" font-size="73" x="135.208" y="0">-</tspan><tspan font-style="normal" font-size="73" x="159.844" y="0">2.0,</tspan><tspan font-size="73" x="660" y="0">x</tspan><tspan font-style="normal" font-size="49" x="692.656" y="17">1</tspan><tspan font-style="normal" font-size="73" x="735.625" y="0">= </tspan><tspan font-style="normal" font-size="73" x="795.208" y="0">-</tspan><tspan font-style="normal" font-size="73" x="819.844" y="0">1.0</tspan><tspan font-style="normal" font-size="73" x="0" y="176">Solution</tspan></text><path d="M1423.14 2245.69 1672.14 2245.69 1672.14 2249.69 1423.14 2249.69Z" fill-rule="evenodd"/><text font-family="Times New Roman,Times New Roman_MSFontService,sans-serif" font-style="italic" font-weight="400" font-size="73" transform="matrix(1 0 0 1 1423.14 2327)">x<tspan font-style="normal" font-size="49" x="32.6563" y="17">0</tspan><tspan font-style="normal" font-size="73" x="75.625" y="0">= 0.638266,</tspan><tspan font-size="73" x="660" y="0">x</tspan><tspan font-style="normal" font-size="49" x="692.656" y="17">1</tspan><tspan font-style="normal" font-size="73" x="735.625" y="0">= 0.246682</tspan></text><path d="M0 0 0.000360892 64.9689" stroke="#000000" stroke-width="4.58333" stroke-linejoin="round" stroke-miterlimit="10" fill="none" fill-rule="evenodd" transform="matrix(1 0 0 -1 2690.5 1105.47)"/><path d="M0 0 64.9689 64.9689" stroke="#000000" stroke-width="4.58333" stroke-linejoin="round" stroke-miterlimit="10" fill="none" fill-rule="evenodd" transform="matrix(1 0 0 -1 2690.5 1105.47)"/><path d="M0 0 0.000360892 64.9689" stroke="#000000" stroke-width="4.58333" stroke-linejoin="round" stroke-miterlimit="10" fill="none" fill-rule="evenodd" transform="matrix(1 0 0 -1 2690.5 1170.47)"/><path d="M0 0 64.9689 64.9689" stroke="#000000" stroke-width="4.58333" stroke-linejoin="round" stroke-miterlimit="10" fill="none" fill-rule="evenodd" transform="matrix(1 0 0 -1 2690.5 1170.47)"/></g></svg>